<?xml version="1.0" encoding="UTF-8" standalone="no"?>
<!DOCTYPE svg PUBLIC "-//W3C//DTD SVG 1.1//EN"
 "http://www.w3.org/Graphics/SVG/1.1/DTD/svg11.dtd">
<!-- Generated by graphviz version 2.43.0 (0)
 -->
<!-- Title: G Pages: 1 -->
<svg width="1726pt" height="796pt"
 viewBox="0.00 0.00 1726.00 796.00" xmlns="http://www.w3.org/2000/svg" xmlns:xlink="http://www.w3.org/1999/xlink">
<g id="graph0" class="graph" transform="scale(1 1) rotate(0) translate(4 792)">
<title>G</title>
<polygon fill="white" stroke="transparent" points="-4,4 -4,-792 1722,-792 1722,4 -4,4"/>
<g id="clust1" class="cluster">
<title>cluster_module.visitor_counter</title>
<polygon fill="none" stroke="black" points="21.5,-8 21.5,-299 1203,-299 1203,-8 21.5,-8"/>
<text text-anchor="middle" x="612.25" y="-283.8" font-family="sans-serif" font-size="14.00">module.visitor_counter</text>
</g>
<g id="clust2" class="cluster">
<title>cluster_module.website_frontend</title>
<polygon fill="none" stroke="black" points="8,-307 8,-780 1710,-780 1710,-307 8,-307"/>
<text text-anchor="middle" x="859" y="-764.8" font-family="sans-serif" font-size="14.00">module.website_frontend</text>
</g>
<!-- module.visitor_counter.aws_cloudwatch_log_group.lambda -->
<g id="node1" class="node">
<title>module.visitor_counter.aws_cloudwatch_log_group.lambda</title>
<polygon fill="none" stroke="black" points="289.5,-196 29.5,-196 29.5,-160 289.5,-160 289.5,-196"/>
<text text-anchor="middle" x="159.5" y="-174.3" font-family="sans-serif" font-size="14.00">aws_cloudwatch_log_group.lambda</text>
</g>
<!-- module.visitor_counter.aws_dynamodb_table.counter -->
<g id="node2" class="node">
<title>module.visitor_counter.aws_dynamodb_table.counter</title>
<polygon fill="none" stroke="black" points="1188,-88 964,-88 964,-52 1188,-52 1188,-88"/>
<text text-anchor="middle" x="1076" y="-66.3" font-family="sans-serif" font-size="14.00">aws_dynamodb_table.counter</text>
</g>
<!-- module.visitor_counter.aws_iam_role.lambda_execution -->
<g id="node3" class="node">
<title>module.visitor_counter.aws_iam_role.lambda_execution</title>
<polygon fill="none" stroke="black" points="1195,-178 957,-178 957,-142 1195,-142 1195,-178"/>
<text text-anchor="middle" x="1076" y="-156.3" font-family="sans-serif" font-size="14.00">aws_iam_role.lambda_execution</text>
</g>
<!-- module.visitor_counter.aws_iam_role_policy.lambda_dynamodb -->
<g id="node4" class="node">
<title>module.visitor_counter.aws_iam_role_policy.lambda_dynamodb</title>
<polygon fill="none" stroke="black" points="723.5,-124 433.5,-124 433.5,-88 723.5,-88 723.5,-124"/>
<text text-anchor="middle" x="578.5" y="-102.3" font-family="sans-serif" font-size="14.00">aws_iam_role_policy.lambda_dynamodb</text>
</g>
<!-- module.visitor_counter.aws_iam_role_policy.lambda_dynamodb&#45;&gt;module.visitor_counter.aws_dynamodb_table.counter -->
<g id="edge1" class="edge">
<title>module.visitor_counter.aws_iam_role_policy.lambda_dynamodb&#45;&gt;module.visitor_counter.aws_dynamodb_table.counter</title>
<path fill="none" stroke="black" d="M723.82,-95.51C796.8,-90.21 884.37,-83.85 953.8,-78.81"/>
<polygon fill="black" stroke="black" points="954.19,-82.29 963.91,-78.07 953.69,-75.3 954.19,-82.29"/>
</g>
<!-- module.visitor_counter.aws_iam_role_policy.lambda_dynamodb&#45;&gt;module.visitor_counter.aws_iam_role.lambda_execution -->
<g id="edge2" class="edge">
<title>module.visitor_counter.aws_iam_role_policy.lambda_dynamodb&#45;&gt;module.visitor_counter.aws_iam_role.lambda_execution</title>
<path fill="none" stroke="black" d="M723.82,-121.73C794.34,-129.41 878.5,-138.59 946.75,-146.02"/>
<polygon fill="black" stroke="black" points="946.38,-149.5 956.7,-147.11 947.14,-142.54 946.38,-149.5"/>
</g>
<!-- module.visitor_counter.aws_iam_role_policy_attachment.lambda_dynamodb_full -->
<g id="node5" class="node">
<title>module.visitor_counter.aws_iam_role_policy_attachment.lambda_dynamodb_full</title>
<polygon fill="none" stroke="black" points="782,-268 375,-268 375,-232 782,-232 782,-268"/>
<text text-anchor="middle" x="578.5" y="-246.3" font-family="sans-serif" font-size="14.00">aws_iam_role_policy_attachment.lambda_dynamodb_full</text>
</g>
<!-- module.visitor_counter.aws_iam_role_policy_attachment.lambda_dynamodb_full&#45;&gt;module.visitor_counter.aws_iam_role.lambda_execution -->
<g id="edge3" class="edge">
<title>module.visitor_counter.aws_iam_role_policy_attachment.lambda_dynamodb_full&#45;&gt;module.visitor_counter.aws_iam_role.lambda_execution</title>
<path fill="none" stroke="black" d="M681.5,-232C713.66,-226.28 749.32,-219.92 782,-214 843.7,-202.83 912.66,-190.13 968.18,-179.85"/>
<polygon fill="black" stroke="black" points="968.83,-183.29 978.03,-178.03 967.56,-176.41 968.83,-183.29"/>
</g>
<!-- module.visitor_counter.aws_iam_role_policy_attachment.lambda_logs -->
<g id="node6" class="node">
<title>module.visitor_counter.aws_iam_role_policy_attachment.lambda_logs</title>
<polygon fill="none" stroke="black" points="745,-196 412,-196 412,-160 745,-160 745,-196"/>
<text text-anchor="middle" x="578.5" y="-174.3" font-family="sans-serif" font-size="14.00">aws_iam_role_policy_attachment.lambda_logs</text>
</g>
<!-- module.visitor_counter.aws_iam_role_policy_attachment.lambda_logs&#45;&gt;module.visitor_counter.aws_iam_role.lambda_execution -->
<g id="edge4" class="edge">
<title>module.visitor_counter.aws_iam_role_policy_attachment.lambda_logs&#45;&gt;module.visitor_counter.aws_iam_role.lambda_execution</title>
<path fill="none" stroke="black" d="M745.18,-171.98C810.88,-169.59 885.25,-166.89 946.72,-164.66"/>
<polygon fill="black" stroke="black" points="946.99,-168.15 956.86,-164.29 946.74,-161.16 946.99,-168.15"/>
</g>
<!-- module.visitor_counter.aws_lambda_function.counter -->
<g id="node7" class="node">
<title>module.visitor_counter.aws_lambda_function.counter</title>
<polygon fill="none" stroke="black" points="690.5,-52 466.5,-52 466.5,-16 690.5,-16 690.5,-52"/>
<text text-anchor="middle" x="578.5" y="-30.3" font-family="sans-serif" font-size="14.00">aws_lambda_function.counter</text>
</g>
<!-- module.visitor_counter.aws_lambda_function.counter&#45;&gt;module.visitor_counter.aws_dynamodb_table.counter -->
<g id="edge5" class="edge">
<title>module.visitor_counter.aws_lambda_function.counter&#45;&gt;module.visitor_counter.aws_dynamodb_table.counter</title>
<path fill="none" stroke="black" d="M690.7,-42.08C768.82,-47.75 873.28,-55.34 953.58,-61.18"/>
<polygon fill="black" stroke="black" points="953.52,-64.68 963.74,-61.92 954.02,-57.7 953.52,-64.68"/>
</g>
<!-- module.visitor_counter.aws_lambda_function.counter&#45;&gt;module.visitor_counter.aws_iam_role.lambda_execution -->
<g id="edge6" class="edge">
<title>module.visitor_counter.aws_lambda_function.counter&#45;&gt;module.visitor_counter.aws_iam_role.lambda_execution</title>
<path fill="none" stroke="black" d="M690.76,-47.86C720.81,-53.2 753.02,-60.4 782,-70 815.96,-81.25 820.41,-93.68 854,-106 891.44,-119.74 933.73,-131.04 971.22,-139.69"/>
<polygon fill="black" stroke="black" points="970.62,-143.14 981.14,-141.94 972.17,-136.32 970.62,-143.14"/>
</g>
<!-- module.visitor_counter.aws_lambda_function_url.counter -->
<g id="node8" class="node">
<title>module.visitor_counter.aws_lambda_function_url.counter</title>
<polygon fill="none" stroke="black" points="284,-52 35,-52 35,-16 284,-16 284,-52"/>
<text text-anchor="middle" x="159.5" y="-30.3" font-family="sans-serif" font-size="14.00">aws_lambda_function_url.counter</text>
</g>
<!-- module.visitor_counter.aws_lambda_function_url.counter&#45;&gt;module.visitor_counter.aws_lambda_function.counter -->
<g id="edge7" class="edge">
<title>module.visitor_counter.aws_lambda_function_url.counter&#45;&gt;module.visitor_counter.aws_lambda_function.counter</title>
<path fill="none" stroke="black" d="M284.2,-34C338.46,-34 401.94,-34 455.95,-34"/>
<polygon fill="black" stroke="black" points="456.26,-37.5 466.26,-34 456.26,-30.5 456.26,-37.5"/>
</g>
<!-- module.website_frontend.aws_acm_certificate.website -->
<g id="node9" class="node">
<title>module.website_frontend.aws_acm_certificate.website</title>
<polygon fill="none" stroke="black" points="1642.5,-739 1429.5,-739 1429.5,-703 1642.5,-703 1642.5,-739"/>
<text text-anchor="middle" x="1536" y="-717.3" font-family="sans-serif" font-size="14.00">aws_acm_certificate.website</text>
</g>
<!-- module.website_frontend.aws_acm_certificate_validation.website -->
<g id="node10" class="node">
<title>module.website_frontend.aws_acm_certificate_validation.website</title>
<polygon fill="none" stroke="black" points="303,-749 16,-749 16,-713 303,-713 303,-749"/>
<text text-anchor="middle" x="159.5" y="-727.3" font-family="sans-serif" font-size="14.00">aws_acm_certificate_validation.website</text>
</g>
<!-- module.website_frontend.aws_route53_record.cert_validation -->
<g id="node14" class="node">
<title>module.website_frontend.aws_route53_record.cert_validation</title>
<polygon fill="none" stroke="black" points="708.5,-749 448.5,-749 448.5,-713 708.5,-713 708.5,-749"/>
<text text-anchor="middle" x="578.5" y="-727.3" font-family="sans-serif" font-size="14.00">aws_route53_record.cert_validation</text>
</g>
<!-- module.website_frontend.aws_acm_certificate_validation.website&#45;&gt;module.website_frontend.aws_route53_record.cert_validation -->
<g id="edge8" class="edge">
<title>module.website_frontend.aws_acm_certificate_validation.website&#45;&gt;module.website_frontend.aws_route53_record.cert_validation</title>
<path fill="none" stroke="black" d="M303.13,-731C346.79,-731 394.73,-731 438.16,-731"/>
<polygon fill="black" stroke="black" points="438.22,-734.5 448.22,-731 438.22,-727.5 438.22,-734.5"/>
</g>
<!-- module.website_frontend.aws_cloudfront_distribution.website -->
<g id="node11" class="node">
<title>module.website_frontend.aws_cloudfront_distribution.website</title>
<polygon fill="none" stroke="black" points="1208.5,-639 943.5,-639 943.5,-603 1208.5,-603 1208.5,-639"/>
<text text-anchor="middle" x="1076" y="-617.3" font-family="sans-serif" font-size="14.00">aws_cloudfront_distribution.website</text>
</g>
<!-- module.website_frontend.aws_cloudfront_distribution.website&#45;&gt;module.website_frontend.aws_acm_certificate.website -->
<g id="edge9" class="edge">
<title>module.website_frontend.aws_cloudfront_distribution.website&#45;&gt;module.website_frontend.aws_acm_certificate.website</title>
<path fill="none" stroke="black" d="M1201.61,-639.01C1233.18,-644.2 1266.94,-650.29 1298,-657 1306.14,-658.76 1392.61,-682.2 1458.77,-700.21"/>
<polygon fill="black" stroke="black" points="1458.22,-703.69 1468.79,-702.94 1460.06,-696.94 1458.22,-703.69"/>
</g>
<!-- module.website_frontend.aws_cloudfront_origin_access_control.website -->
<g id="node12" class="node">
<title>module.website_frontend.aws_cloudfront_origin_access_control.website</title>
<polygon fill="none" stroke="black" points="1702,-658 1370,-658 1370,-622 1702,-622 1702,-658"/>
<text text-anchor="middle" x="1536" y="-636.3" font-family="sans-serif" font-size="14.00">aws_cloudfront_origin_access_control.website</text>
</g>
<!-- module.website_frontend.aws_cloudfront_distribution.website&#45;&gt;module.website_frontend.aws_cloudfront_origin_access_control.website -->
<g id="edge10" class="edge">
<title>module.website_frontend.aws_cloudfront_distribution.website&#45;&gt;module.website_frontend.aws_cloudfront_origin_access_control.website</title>
<path fill="none" stroke="black" d="M1208.55,-626.46C1255.53,-628.41 1309.24,-630.63 1359.34,-632.71"/>
<polygon fill="black" stroke="black" points="1359.5,-636.22 1369.64,-633.14 1359.79,-629.23 1359.5,-636.22"/>
</g>
<!-- module.website_frontend.aws_s3_bucket.website -->
<g id="node17" class="node">
<title>module.website_frontend.aws_s3_bucket.website</title>
<polygon fill="none" stroke="black" points="1625,-495 1447,-495 1447,-459 1625,-459 1625,-495"/>
<text text-anchor="middle" x="1536" y="-473.3" font-family="sans-serif" font-size="14.00">aws_s3_bucket.website</text>
</g>
<!-- module.website_frontend.aws_cloudfront_distribution.website&#45;&gt;module.website_frontend.aws_s3_bucket.website -->
<g id="edge11" class="edge">
<title>module.website_frontend.aws_cloudfront_distribution.website&#45;&gt;module.website_frontend.aws_s3_bucket.website</title>
<path fill="none" stroke="black" d="M1208.7,-609.98C1238.82,-604.63 1270.14,-596.71 1298,-585 1334.63,-569.6 1334.72,-550.28 1370,-532 1396.62,-518.2 1427.41,-506.84 1455.14,-498.09"/>
<polygon fill="black" stroke="black" points="1456.28,-501.4 1464.8,-495.1 1454.21,-494.71 1456.28,-501.4"/>
</g>
<!-- module.website_frontend.aws_wafv2_web_acl.cloudfront_protection -->
<g id="node23" class="node">
<title>module.website_frontend.aws_wafv2_web_acl.cloudfront_protection</title>
<polygon fill="none" stroke="black" points="1688.5,-586 1383.5,-586 1383.5,-550 1688.5,-550 1688.5,-586"/>
<text text-anchor="middle" x="1536" y="-564.3" font-family="sans-serif" font-size="14.00">aws_wafv2_web_acl.cloudfront_protection</text>
</g>
<!-- module.website_frontend.aws_cloudfront_distribution.website&#45;&gt;module.website_frontend.aws_wafv2_web_acl.cloudfront_protection -->
<g id="edge12" class="edge">
<title>module.website_frontend.aws_cloudfront_distribution.website&#45;&gt;module.website_frontend.aws_wafv2_web_acl.cloudfront_protection</title>
<path fill="none" stroke="black" d="M1208.55,-605.78C1259.93,-599.83 1319.36,-592.95 1373.31,-586.71"/>
<polygon fill="black" stroke="black" points="1373.79,-590.18 1383.32,-585.55 1372.98,-583.23 1373.79,-590.18"/>
</g>
<!-- module.website_frontend.aws_route53_record.apex -->
<g id="node13" class="node">
<title>module.website_frontend.aws_route53_record.apex</title>
<polygon fill="none" stroke="black" points="675,-677 482,-677 482,-641 675,-641 675,-677"/>
<text text-anchor="middle" x="578.5" y="-655.3" font-family="sans-serif" font-size="14.00">aws_route53_record.apex</text>
</g>
<!-- module.website_frontend.aws_route53_record.apex&#45;&gt;module.website_frontend.aws_cloudfront_distribution.website -->
<g id="edge13" class="edge">
<title>module.website_frontend.aws_route53_record.apex&#45;&gt;module.website_frontend.aws_cloudfront_distribution.website</title>
<path fill="none" stroke="black" d="M675.04,-651.67C748.27,-646.06 850.48,-638.22 933.24,-631.87"/>
<polygon fill="black" stroke="black" points="933.53,-635.36 943.23,-631.11 932.99,-628.38 933.53,-635.36"/>
</g>
<!-- module.website_frontend.aws_route53_zone.main -->
<g id="node16" class="node">
<title>module.website_frontend.aws_route53_zone.main</title>
<polygon fill="none" stroke="black" points="1167.5,-711 984.5,-711 984.5,-675 1167.5,-675 1167.5,-711"/>
<text text-anchor="middle" x="1076" y="-689.3" font-family="sans-serif" font-size="14.00">aws_route53_zone.main</text>
</g>
<!-- module.website_frontend.aws_route53_record.apex&#45;&gt;module.website_frontend.aws_route53_zone.main -->
<g id="edge14" class="edge">
<title>module.website_frontend.aws_route53_record.apex&#45;&gt;module.website_frontend.aws_route53_zone.main</title>
<path fill="none" stroke="black" d="M675.04,-665.56C760.93,-671.45 886.66,-680.08 974.15,-686.08"/>
<polygon fill="black" stroke="black" points="974.14,-689.59 984.35,-686.78 974.61,-682.6 974.14,-689.59"/>
</g>
<!-- module.website_frontend.aws_route53_record.cert_validation&#45;&gt;module.website_frontend.aws_acm_certificate.website -->
<g id="edge15" class="edge">
<title>module.website_frontend.aws_route53_record.cert_validation&#45;&gt;module.website_frontend.aws_acm_certificate.website</title>
<path fill="none" stroke="black" d="M708.66,-731.84C852.49,-732.5 1091.9,-732.76 1298,-729 1337.49,-728.28 1380.66,-726.97 1419.21,-725.63"/>
<polygon fill="black" stroke="black" points="1419.56,-729.12 1429.43,-725.26 1419.31,-722.12 1419.56,-729.12"/>
</g>
<!-- module.website_frontend.aws_route53_record.cert_validation&#45;&gt;module.website_frontend.aws_route53_zone.main -->
<g id="edge16" class="edge">
<title>module.website_frontend.aws_route53_record.cert_validation&#45;&gt;module.website_frontend.aws_route53_zone.main</title>
<path fill="none" stroke="black" d="M708.72,-721.09C791.59,-714.73 897.62,-706.6 974.25,-700.73"/>
<polygon fill="black" stroke="black" points="974.69,-704.2 984.39,-699.95 974.16,-697.22 974.69,-704.2"/>
</g>
<!-- module.website_frontend.aws_route53_record.www -->
<g id="node15" class="node">
<title>module.website_frontend.aws_route53_record.www</title>
<polygon fill="none" stroke="black" points="675,-605 482,-605 482,-569 675,-569 675,-605"/>
<text text-anchor="middle" x="578.5" y="-583.3" font-family="sans-serif" font-size="14.00">aws_route53_record.www</text>
</g>
<!-- module.website_frontend.aws_route53_record.www&#45;&gt;module.website_frontend.aws_cloudfront_distribution.website -->
<g id="edge17" class="edge">
<title>module.website_frontend.aws_route53_record.www&#45;&gt;module.website_frontend.aws_cloudfront_distribution.website</title>
<path fill="none" stroke="black" d="M675.04,-593.56C748.27,-598.58 850.48,-605.59 933.24,-611.27"/>
<polygon fill="black" stroke="black" points="933.02,-614.77 943.23,-611.96 933.49,-607.78 933.02,-614.77"/>
</g>
<!-- module.website_frontend.aws_route53_record.www&#45;&gt;module.website_frontend.aws_route53_zone.main -->
<g id="edge18" class="edge">
<title>module.website_frontend.aws_route53_record.www&#45;&gt;module.website_frontend.aws_route53_zone.main</title>
<path fill="none" stroke="black" d="M675.03,-598.65C709.25,-604.21 747.81,-612.1 782,-623 815.72,-633.75 820.21,-646.5 854,-657 892.51,-668.97 936.09,-677.15 974.32,-682.64"/>
<polygon fill="black" stroke="black" points="974.04,-686.14 984.43,-684.05 975.01,-679.21 974.04,-686.14"/>
</g>
<!-- module.website_frontend.aws_s3_bucket_policy.website -->
<g id="node18" class="node">
<title>module.website_frontend.aws_s3_bucket_policy.website</title>
<polygon fill="none" stroke="black" points="690,-533 467,-533 467,-497 690,-497 690,-533"/>
<text text-anchor="middle" x="578.5" y="-511.3" font-family="sans-serif" font-size="14.00">aws_s3_bucket_policy.website</text>
</g>
<!-- module.website_frontend.aws_s3_bucket_policy.website&#45;&gt;module.website_frontend.aws_cloudfront_distribution.website -->
<g id="edge19" class="edge">
<title>module.website_frontend.aws_s3_bucket_policy.website&#45;&gt;module.website_frontend.aws_cloudfront_distribution.website</title>
<path fill="none" stroke="black" d="M690.09,-529.2C720.29,-534.55 752.74,-541.67 782,-551 815.72,-561.75 820.21,-574.5 854,-585 879.18,-592.83 906.53,-599.03 933.14,-603.93"/>
<polygon fill="black" stroke="black" points="932.84,-607.43 943.3,-605.74 934.07,-600.54 932.84,-607.43"/>
</g>
<!-- module.website_frontend.aws_s3_bucket_public_access_block.website -->
<g id="node19" class="node">
<title>module.website_frontend.aws_s3_bucket_public_access_block.website</title>
<polygon fill="none" stroke="black" points="1237.5,-567 914.5,-567 914.5,-531 1237.5,-531 1237.5,-567"/>
<text text-anchor="middle" x="1076" y="-545.3" font-family="sans-serif" font-size="14.00">aws_s3_bucket_public_access_block.website</text>
</g>
<!-- module.website_frontend.aws_s3_bucket_public_access_block.website&#45;&gt;module.website_frontend.aws_s3_bucket.website -->
<g id="edge20" class="edge">
<title>module.website_frontend.aws_s3_bucket_public_access_block.website&#45;&gt;module.website_frontend.aws_s3_bucket.website</title>
<path fill="none" stroke="black" d="M1191.69,-530.97C1267.23,-519.1 1365.08,-503.71 1436.99,-492.41"/>
<polygon fill="black" stroke="black" points="1437.62,-495.85 1446.96,-490.84 1436.53,-488.94 1437.62,-495.85"/>
</g>
<!-- module.website_frontend.aws_s3_bucket_server_side_encryption_configuration.website -->
<g id="node20" class="node">
<title>module.website_frontend.aws_s3_bucket_server_side_encryption_configuration.website</title>
<polygon fill="none" stroke="black" points="1298,-495 854,-495 854,-459 1298,-459 1298,-495"/>
<text text-anchor="middle" x="1076" y="-473.3" font-family="sans-serif" font-size="14.00">aws_s3_bucket_server_side_encryption_configuration.website</text>
</g>
<!-- module.website_frontend.aws_s3_bucket_server_side_encryption_configuration.website&#45;&gt;module.website_frontend.aws_s3_bucket.website -->
<g id="edge21" class="edge">
<title>module.website_frontend.aws_s3_bucket_server_side_encryption_configuration.website&#45;&gt;module.website_frontend.aws_s3_bucket.website</title>
<path fill="none" stroke="black" d="M1298.29,-477C1346.85,-477 1395.88,-477 1436.62,-477"/>
<polygon fill="black" stroke="black" points="1436.79,-480.5 1446.79,-477 1436.79,-473.5 1436.79,-480.5"/>
</g>
<!-- module.website_frontend.aws_s3_bucket_versioning.website -->
<g id="node21" class="node">
<title>module.website_frontend.aws_s3_bucket_versioning.website</title>
<polygon fill="none" stroke="black" points="1204.5,-423 947.5,-423 947.5,-387 1204.5,-387 1204.5,-423"/>
<text text-anchor="middle" x="1076" y="-401.3" font-family="sans-serif" font-size="14.00">aws_s3_bucket_versioning.website</text>
</g>
<!-- module.website_frontend.aws_s3_bucket_versioning.website&#45;&gt;module.website_frontend.aws_s3_bucket.website -->
<g id="edge22" class="edge">
<title>module.website_frontend.aws_s3_bucket_versioning.website&#45;&gt;module.website_frontend.aws_s3_bucket.website</title>
<path fill="none" stroke="black" d="M1191.69,-423.03C1267.23,-434.9 1365.08,-450.29 1436.99,-461.59"/>
<polygon fill="black" stroke="black" points="1436.53,-465.06 1446.96,-463.16 1437.62,-458.15 1436.53,-465.06"/>
</g>
<!-- module.website_frontend.aws_s3_bucket_website_configuration.website -->
<g id="node22" class="node">
<title>module.website_frontend.aws_s3_bucket_website_configuration.website</title>
<polygon fill="none" stroke="black" points="1244.5,-351 907.5,-351 907.5,-315 1244.5,-315 1244.5,-351"/>
<text text-anchor="middle" x="1076" y="-329.3" font-family="sans-serif" font-size="14.00">aws_s3_bucket_website_configuration.website</text>
</g>
<!-- module.website_frontend.aws_s3_bucket_website_configuration.website&#45;&gt;module.website_frontend.aws_s3_bucket.website -->
<g id="edge23" class="edge">
<title>module.website_frontend.aws_s3_bucket_website_configuration.website&#45;&gt;module.website_frontend.aws_s3_bucket.website</title>
<path fill="none" stroke="black" d="M1222.41,-351.02C1247.87,-355.78 1273.91,-361.69 1298,-369 1369.6,-390.72 1447.65,-429.48 1493.91,-454.18"/>
<polygon fill="black" stroke="black" points="1492.26,-457.27 1502.72,-458.93 1495.58,-451.1 1492.26,-457.27"/>
</g>
</g>
</svg>
